<svg width="23" height="23" fill="none" xmlns="http://www.w3.org/2000/svg"><path d="M11.04 0C4.9485 0 0 4.9485 0 11.04c0 6.0915 4.9485 11.04 11.04 11.04 6.0915 0 11.04-4.9485 11.04-11.04C22.08 4.9485 17.1315 0 11.04 0Zm0 .96c5.5727 0 10.08 4.5073 10.08 10.08s-4.5073 10.08-10.08 10.08a10.0996 10.0996 0 0 1-2.9297-.4331c.413-.6904.946-1.6772 1.1578-2.4919.1258-.4831.6432-2.4534.6432-2.4534.3361.6418 1.3184 1.185 2.3643 1.185 3.1123 0 5.356-2.8623 5.356-6.4191 0-3.41-2.7826-5.9606-6.3628-5.9606-4.4543 0-6.8185 2.9895-6.8185 6.2447 0 1.5138.8052 3.3983 2.0944 3.9984.1953.0909.3001.0515.345-.1378.0345-.1437.2087-.8441.2869-1.17.025-.104.0129-.1939-.0713-.2963-.4267-.5175-.7687-1.4682-.7687-2.355 0-2.2763 1.7233-4.4793 4.6593-4.4793 2.5352 0 4.3107 1.7282 4.3107 4.199 0 2.7916-1.4096 4.726-3.2438 4.726-1.0129 0-1.7714-.838-1.5281-1.8657.2917-1.2265.855-2.55.855-3.4359 0-.7923-.4252-1.4531-1.306-1.4531-1.0355 0-1.8674 1.0706-1.8674 2.5059 0 .9133.3093 1.5319.3093 1.5319s-1.023 4.325-1.2103 5.13c-.1877.8044-.1374 1.8878-.06 2.6944C3.5621 18.8892.96 15.2733.96 11.04.96 5.4673 5.4673.96 11.04.96Z" fill="#FEFAFA"/></svg>