<svg width="18" height="10" fill="none" xmlns="http://www.w3.org/2000/svg"><path d="M10.7607 7.6746c.6375-.206 1.4536 1.3602 2.3225 1.9597.6521.4541 1.1515.356 1.1515.356l2.3158-.0333s1.2102-.0747.6381-1.0362c-.0473-.08-.3354-.7128-1.7236-2.015-1.4516-1.3623-1.2549-1.1416.4927-3.4967 1.0649-1.4356 1.491-2.3124 1.3576-2.6858-.128-.3595-.9102-.2661-.9102-.2661l-2.6091.018c-.2541.0007-.4694.0794-.5675.3434-.002.0027-.414 1.1109-.9635 2.053-1.1609 1.9931-1.6243 2.0991-1.8163 1.9744-.4408-.2887-.3294-1.1582-.3294-1.7763 0-1.9317.288-2.7372-.5641-2.9452C9.2705.055 9.0624.0098 8.3362.003c-.9281-.014-1.7163 0-2.163.2194-.2967.1487-.5241.4747-.386.4934.1733.0234.562.1067.77.3908.2675.368.2594 1.1928.2594 1.1928s.1527 2.2745-.36 2.5565c-.352.1934-.8335-.2013-1.869-2.011-.5288-.9255-.9282-1.9484-.9282-1.9484s-.0774-.19-.2174-.294c-.1667-.1234-.4-.1627-.4-.1627L.5654.4559S.1934.4665.0567.6306c-.1214.1453-.01.4454-.01.4454s1.9397 4.5882 4.1361 6.8993c2.0137 2.1217 4.3022 1.981 4.3022 1.981h1.0368s.3127-.036.4728-.208c.1493-.16.1427-.4608.1427-.4608s-.0207-1.4062.6234-1.613Z" fill="#fff"/></svg>