<svg width="23" height="22" viewBox="0 0 23 22" fill="none" xmlns="http://www.w3.org/2000/svg">
<path d="M11.4568 0.785944C11.407 0.786748 11.3577 0.795288 11.3105 0.811256C10.4965 0.82328 9.69636 0.910584 8.93867 1.10001C8.61004 1.18002 8.28524 1.28113 7.96273 1.39907C7.88547 1.40778 7.81147 1.43512 7.74711 1.47876C7.33482 1.62952 6.93468 1.80415 6.55461 2.00563C5.93072 2.32966 5.34637 2.73202 4.79961 3.17938C4.72641 3.20911 4.66169 3.25645 4.61117 3.31719C4.56009 3.3599 4.50902 3.40252 4.4593 3.44844C3.82634 4.01107 3.25845 4.64876 2.77086 5.35251C2.62738 5.5588 2.49592 5.77369 2.36961 5.99001C2.31904 6.04692 2.28272 6.11504 2.26367 6.18876C1.70938 7.16944 1.30943 8.25028 1.09836 9.39219C1.06606 9.45974 1.05001 9.5339 1.05148 9.60876C1.02355 9.76466 0.996774 9.92179 0.979297 10.0878C0.929559 10.5031 0.904297 10.9236 0.904297 11.3525C0.904297 11.7814 0.929559 12.2019 0.979297 12.6172C0.996774 12.7832 1.02355 12.9404 1.05148 13.0963C1.05015 13.1708 1.0662 13.2446 1.09836 13.3119C1.30923 14.4533 1.708 15.534 2.2618 16.5144C2.28112 16.5889 2.3181 16.6578 2.36961 16.715C2.49605 16.9316 2.62721 17.1469 2.77086 17.3534C3.25897 18.0578 3.82696 18.6902 4.45742 19.2556C4.50698 19.3015 4.5584 19.3433 4.6093 19.3859L4.61023 19.3869C4.66106 19.4486 4.72647 19.4966 4.80055 19.5266H4.80148C5.34779 19.9734 5.93133 20.3757 6.55461 20.6994C6.93468 20.9009 7.33482 21.0755 7.74711 21.2263C7.8112 21.2698 7.88485 21.2971 7.9618 21.3059C8.28458 21.424 8.60976 21.5249 8.93867 21.605C9.69636 21.7944 10.4965 21.8817 11.3105 21.8938C11.4103 21.9275 11.5183 21.9275 11.618 21.8938C12.4321 21.8817 13.2322 21.7944 13.9899 21.605C14.3185 21.525 14.6434 21.4239 14.9659 21.3059C15.0431 21.2972 15.1171 21.2699 15.1815 21.2263C15.5938 21.0755 15.9939 20.9009 16.374 20.6994C16.9979 20.3754 17.5822 19.973 18.129 19.5256C18.2022 19.4959 18.2669 19.4486 18.3174 19.3878C18.369 19.3447 18.421 19.3021 18.4712 19.2556C19.1016 18.6902 19.6696 18.0578 20.1577 17.3534V17.3525C20.3012 17.1462 20.4327 16.9313 20.559 16.715C20.6096 16.6581 20.6459 16.59 20.6649 16.5163C21.2192 15.5356 21.6192 14.4547 21.8302 13.3128C21.8625 13.2453 21.8786 13.1711 21.8771 13.0963C21.905 12.9404 21.9318 12.7832 21.9493 12.6172C21.999 12.2019 22.0243 11.7814 22.0243 11.3525C22.0243 10.9236 21.999 10.5031 21.9493 10.0878C21.9318 9.92179 21.905 9.76466 21.8771 9.60876C21.8784 9.53422 21.8624 9.46039 21.8302 9.39313C21.6194 8.25172 21.2206 7.171 20.6668 6.19063C20.6475 6.11608 20.6105 6.04726 20.559 5.99001C20.4327 5.77369 20.3012 5.5588 20.1577 5.35251V5.35157C19.6702 4.64808 19.1021 4.01092 18.4693 3.44844C18.4202 3.40313 18.3697 3.36125 18.3193 3.31907C18.319 3.31876 18.3187 3.31844 18.3184 3.31813C18.2675 3.25645 18.2021 3.20844 18.128 3.17844C18.1277 3.17844 18.1274 3.17844 18.1271 3.17844C17.5808 2.73163 16.9973 2.32934 16.374 2.00563C15.9939 1.80415 15.5938 1.62952 15.1815 1.47876C15.1174 1.43526 15.0437 1.40792 14.9668 1.39907C14.644 1.28098 14.3188 1.18009 13.9899 1.10001C13.2322 0.910584 12.4321 0.823279 11.618 0.811256C11.5661 0.793676 11.5116 0.785114 11.4568 0.785944ZM7.85961 1.42907C7.8563 1.43023 7.85357 1.43259 7.85023 1.43376C7.84875 1.43433 7.84708 1.43412 7.84555 1.43469L7.85961 1.42907ZM15.069 1.42907L15.083 1.43469C15.0816 1.43412 15.0799 1.43433 15.0784 1.43376C15.075 1.43259 15.0723 1.43024 15.069 1.42907ZM10.9843 1.81063V3.72969C10.5239 3.75882 10.0623 3.78702 9.62773 3.89282C9.62742 3.89282 9.62711 3.89282 9.6268 3.89282C9.51581 3.92004 9.40756 3.96116 9.29773 3.99313L8.64148 2.19219C8.81631 2.13841 8.98445 2.07662 9.16836 2.03188C9.1693 2.03157 9.17024 2.03126 9.17117 2.03094C9.74772 1.8868 10.3656 1.84212 10.9843 1.81063ZM11.9443 1.81063C12.563 1.84212 13.1809 1.8868 13.7574 2.03094C13.7584 2.03126 13.7593 2.03157 13.7602 2.03188C13.9441 2.07662 14.1123 2.13841 14.2871 2.19219L13.6309 3.99313C13.521 3.96116 13.4128 3.92004 13.3018 3.89282C13.3015 3.89282 13.3012 3.89282 13.3009 3.89282C12.8663 3.78702 12.4047 3.75882 11.9443 3.72969V1.81063ZM7.74242 2.52688L8.39773 4.32969C8.22964 4.40312 8.05838 4.46549 7.89523 4.55376L7.8943 4.55469C7.63678 4.69028 7.40704 4.87936 7.16398 5.04407C7.06592 5.05699 6.97424 5.09988 6.90148 5.16688L5.69398 3.72876C6.11292 3.41162 6.5361 3.09612 7.00086 2.85501C7.00211 2.85439 7.00336 2.85376 7.00461 2.85313C7.24462 2.7259 7.49476 2.63107 7.74242 2.52688ZM15.1862 2.52688C15.4338 2.63107 15.684 2.7259 15.924 2.85313C15.9252 2.85376 15.9265 2.85439 15.9277 2.85501C16.3925 3.09612 16.8157 3.41162 17.2346 3.72876L16.0271 5.16688C15.9542 5.10022 15.8626 5.05766 15.7646 5.04501C15.5214 4.88019 15.292 4.69036 15.0343 4.55469C14.8708 4.46619 14.6993 4.40328 14.5309 4.32969L15.1862 2.52688ZM4.94867 4.33344L6.18711 5.80907C5.8069 6.1716 5.44211 6.55372 5.14086 6.99032C5.11433 7.02842 5.09408 7.06821 5.06867 7.10657L3.40461 6.14563C3.45689 6.06441 3.50473 5.97844 3.5593 5.90001C3.5593 5.89969 3.5593 5.89938 3.5593 5.89907C3.96005 5.32066 4.43828 4.80836 4.94867 4.33344ZM17.9799 4.33344C18.4903 4.80836 18.9685 5.32066 19.3693 5.89907C19.3693 5.89938 19.3693 5.89969 19.3693 5.90001C19.4239 5.97844 19.4717 6.06441 19.524 6.14563L17.8599 7.10657C17.8345 7.06821 17.8143 7.02842 17.7877 6.99032L17.7859 6.98844C17.485 6.55266 17.1211 6.17099 16.7415 5.80907L17.9799 4.33344ZM10.9843 4.68969V6.57688C10.2838 6.64694 9.62901 6.87194 9.0493 7.21157L7.93367 5.67688C8.07369 5.59031 8.19556 5.48042 8.34242 5.40313C8.34399 5.4022 8.34555 5.40127 8.34711 5.40032C8.59076 5.26817 8.85216 5.15669 9.11867 5.05719C9.15513 5.04792 9.19037 5.03439 9.22367 5.01688C9.42556 4.94279 9.6331 4.87926 9.85555 4.82469L9.85461 4.82563C10.2165 4.73751 10.6019 4.71727 10.9843 4.68969ZM11.9443 4.68969C12.3267 4.71727 12.712 4.73751 13.074 4.82563L13.073 4.82469C13.2958 4.87933 13.5037 4.94266 13.7059 5.01688C13.7397 5.03485 13.7756 5.0487 13.8127 5.05813C14.0783 5.15739 14.3387 5.26863 14.5815 5.40032C14.583 5.40127 14.5846 5.4022 14.5862 5.40313C14.733 5.48042 14.8549 5.59031 14.9949 5.67688L13.8793 7.21157C13.2996 6.87194 12.6448 6.64694 11.9443 6.57688V4.68969ZM7.14055 6.21782L8.27398 7.77782C7.7655 8.23222 7.35214 8.79048 7.07305 9.42219L5.24961 8.82782C5.35779 8.55433 5.47672 8.28836 5.6218 8.03938C5.64404 8.00886 5.66261 7.97582 5.67711 7.94094C5.75838 7.80124 5.84089 7.66602 5.93023 7.53782C5.93055 7.5372 5.93086 7.53657 5.93117 7.53594C6.23995 7.08844 6.60363 6.67987 7.00742 6.32094C7.00805 6.32032 7.00867 6.3197 7.0093 6.31907C7.03893 6.2924 7.05585 6.27841 7.0768 6.26094C7.07742 6.26063 7.07805 6.26032 7.07867 6.26001C7.10036 6.24758 7.12105 6.23347 7.14055 6.21782ZM15.788 6.21782C15.807 6.23275 15.8271 6.24622 15.848 6.25813C15.8697 6.27601 15.8881 6.291 15.9193 6.31907C15.9199 6.3197 15.9205 6.32032 15.9212 6.32094C16.325 6.67987 16.6886 7.08844 16.9974 7.53594C16.9977 7.53657 16.998 7.5372 16.9984 7.53782C17.0879 7.66623 17.1701 7.80192 17.2515 7.94188C17.2661 7.97745 17.285 8.01113 17.3077 8.04219C17.308 8.04251 17.3084 8.04282 17.3087 8.04313C17.452 8.28943 17.571 8.55432 17.6818 8.82688L15.8555 9.42219C15.5765 8.79048 15.1631 8.23222 14.6546 7.77782L15.788 6.21782ZM2.9443 6.98751L4.60836 7.94751C4.49738 8.1714 4.37432 8.39026 4.28773 8.62438V8.62532C4.2626 8.68966 4.25399 8.76173 4.23055 8.82688C4.19165 8.87658 4.16293 8.93346 4.14604 8.99427C4.12915 9.05508 4.12442 9.11862 4.13211 9.18126C4.09484 9.30356 4.05884 9.42635 4.02805 9.55157L2.1343 9.21782C2.31122 8.43337 2.584 7.68643 2.9443 6.98751ZM19.9843 6.98751C20.3446 7.68643 20.6174 8.43337 20.7943 9.21782L18.9024 9.55157C18.8716 9.42378 18.8351 9.29803 18.7974 9.17282C18.81 9.05222 18.7765 8.9313 18.7037 8.83438C18.6794 8.76621 18.6719 8.6918 18.6455 8.62438C18.5564 8.39116 18.4337 8.17086 18.3221 7.94657L19.9843 6.98751ZM11.408 7.51532C11.4467 7.52003 11.4857 7.52003 11.5243 7.51532C12.3048 7.5273 13.028 7.76842 13.628 8.17719C13.6756 8.23387 13.7356 8.27879 13.8034 8.30844C14.3827 8.7537 14.8287 9.35997 15.0784 10.0625C15.0847 10.1387 15.1091 10.2123 15.1496 10.2772C15.2485 10.6186 15.3043 10.9785 15.3043 11.3525C15.3043 11.7259 15.2482 12.0851 15.1496 12.4259C15.1088 12.4914 15.0844 12.5656 15.0784 12.6425C14.829 13.3442 14.3836 13.9496 13.8052 14.3947C13.7366 14.4246 13.6759 14.4702 13.628 14.5278C13.0271 14.9373 12.3025 15.1784 11.5205 15.1897C11.4819 15.185 11.4429 15.185 11.4043 15.1897C9.75803 15.1644 8.37248 14.112 7.85023 12.6425C7.84392 12.5663 7.8195 12.4927 7.77898 12.4278C7.68005 12.0864 7.6243 11.7265 7.6243 11.3525C7.6243 10.9791 7.68037 10.6199 7.77898 10.2791C7.81978 10.2137 7.84422 10.1394 7.85023 10.0625C8.37288 8.59187 9.76013 7.53904 11.408 7.51532ZM17.9649 9.74376C17.9975 9.87568 18.0495 9.99982 18.0737 10.1356C18.0763 10.1729 18.0832 10.2097 18.0943 10.2453C18.1092 10.346 18.1243 10.4441 18.1346 10.5369C18.1346 10.5381 18.1346 10.5394 18.1346 10.5406C18.1661 10.8066 18.1843 11.0807 18.1843 11.3525C18.1843 11.6243 18.1662 11.8984 18.1346 12.1644C18.1346 12.1656 18.1346 12.1669 18.1346 12.1681C18.1242 12.2615 18.1093 12.3602 18.0943 12.4616C18.0834 12.4963 18.0765 12.5322 18.0737 12.5684C18.0495 12.7046 17.9975 12.829 17.9649 12.9613L16.1527 12.3716C16.2243 12.0427 16.2643 11.7024 16.2643 11.3525C16.2643 11.0026 16.2243 10.6623 16.1527 10.3334L17.9649 9.74376ZM4.96555 9.74469L6.77586 10.3334C6.70431 10.6623 6.6643 11.0026 6.6643 11.3525C6.6643 11.7024 6.70431 12.0427 6.77586 12.3716L4.96555 12.9603C4.9324 12.8286 4.87899 12.7033 4.85492 12.5684C4.85226 12.5315 4.84534 12.495 4.8343 12.4597C4.81938 12.359 4.80429 12.2609 4.79398 12.1681C4.79399 12.1669 4.79399 12.1656 4.79398 12.1644C4.76242 11.8984 4.7443 11.6243 4.7443 11.3525C4.7443 11.0807 4.76243 10.8066 4.79398 10.5406C4.79399 10.5394 4.79399 10.5381 4.79398 10.5369C4.80436 10.4435 4.81927 10.3449 4.8343 10.2434C4.84513 10.209 4.85205 10.1735 4.85492 10.1375C4.87903 10.0023 4.93233 9.87668 4.96555 9.74469ZM1.93836 10.1581L3.8368 10.4928C3.8057 10.7733 3.7843 11.061 3.7843 11.3525C3.7843 11.644 3.8057 11.9317 3.8368 12.2122L1.93836 12.5469C1.93725 12.537 1.93472 12.5268 1.93367 12.5169C1.93338 12.5144 1.93307 12.5119 1.93273 12.5094C1.88706 12.1303 1.8643 11.7467 1.8643 11.3525C1.8643 10.9583 1.88706 10.5747 1.93273 10.1956C1.93307 10.1931 1.93338 10.1906 1.93367 10.1881C1.93472 10.1782 1.93725 10.1681 1.93836 10.1581ZM20.9902 10.1581C20.9913 10.1681 20.9939 10.1782 20.9949 10.1881C20.9952 10.1906 20.9955 10.1931 20.9959 10.1956C21.0415 10.5747 21.0643 10.9583 21.0643 11.3525C21.0643 11.7467 21.0415 12.1303 20.9959 12.5094C20.9955 12.5119 20.9952 12.5144 20.9949 12.5169C20.9939 12.5268 20.9913 12.537 20.9902 12.5469L19.0918 12.2122C19.1229 11.9317 19.1443 11.644 19.1443 11.3525C19.1443 11.061 19.1229 10.7733 19.0918 10.4928L20.9902 10.1581ZM4.02805 13.1534C4.05891 13.279 4.09473 13.4021 4.13211 13.5247C4.11683 13.6509 4.15223 13.778 4.23055 13.8781C4.25399 13.9433 4.2626 14.0154 4.28773 14.0797V14.0806C4.37432 14.3148 4.49738 14.5336 4.60836 14.7575L2.9443 15.7175C2.584 15.0186 2.31122 14.2716 2.1343 13.4872L4.02805 13.1534ZM18.9024 13.1534L20.7943 13.4872C20.6174 14.2716 20.3446 15.0186 19.9843 15.7175L18.3221 14.7584C18.4337 14.5342 18.5564 14.3139 18.6455 14.0806C18.672 14.0129 18.6793 13.9382 18.7037 13.8697C18.7768 13.7725 18.8103 13.6512 18.7974 13.5303C18.8349 13.4057 18.8718 13.2807 18.9024 13.1534ZM7.07305 13.2828C7.35214 13.9145 7.7655 14.4728 8.27398 14.9272L7.14055 16.4872C7.12159 16.4723 7.10153 16.4588 7.08055 16.4469C7.05894 16.429 7.04049 16.414 7.0093 16.3859C7.00867 16.3853 7.00805 16.3847 7.00742 16.3841C6.60363 16.0251 6.23995 15.6166 5.93117 15.1691C5.93086 15.1684 5.93055 15.1678 5.93023 15.1672C5.84074 15.0388 5.7585 14.9031 5.67711 14.7631C5.66245 14.7276 5.64356 14.6939 5.62086 14.6628C5.62086 14.6625 5.62086 14.6622 5.62086 14.6619C5.47658 14.4139 5.35732 14.1495 5.24961 13.8772L7.07305 13.2828ZM15.8555 13.2828L17.6818 13.8781C17.5706 14.1517 17.4508 14.4176 17.3068 14.6647C17.2845 14.6955 17.2659 14.7289 17.2515 14.7641C17.1702 14.9038 17.0877 15.039 16.9984 15.1672C16.998 15.1678 16.9977 15.1684 16.9974 15.1691C16.6886 15.6166 16.325 16.0251 15.9212 16.3841C15.9205 16.3847 15.9199 16.3853 15.9193 16.3859C15.8897 16.4126 15.8727 16.4266 15.8518 16.4441C15.8513 16.4445 15.8504 16.4446 15.8499 16.445C15.8282 16.4574 15.8075 16.4715 15.788 16.4872L14.6546 14.9272C15.1631 14.4728 15.5765 13.9145 15.8555 13.2828ZM9.0493 15.4934C9.62901 15.8331 10.2838 16.0581 10.9843 16.1281V18.0153C10.6019 17.9877 10.2166 17.9675 9.85461 17.8794L9.85555 17.8803C9.6328 17.8257 9.42487 17.7624 9.22273 17.6881C9.18888 17.6702 9.153 17.6563 9.11586 17.6469C8.85031 17.5476 8.58991 17.4364 8.34711 17.3047C8.34555 17.3037 8.34399 17.3028 8.34242 17.3019C8.19556 17.2246 8.07369 17.1147 7.93367 17.0281L9.0493 15.4934ZM13.8793 15.4934L14.9949 17.0281C14.8549 17.1147 14.733 17.2246 14.5862 17.3019C14.5846 17.3028 14.583 17.3037 14.5815 17.3047C14.3378 17.4368 14.0764 17.5483 13.8099 17.6478C13.7735 17.6571 13.7382 17.6706 13.7049 17.6881C13.503 17.7622 13.2955 17.8258 13.073 17.8803L13.074 17.8794C12.712 17.9675 12.3267 17.9877 11.9443 18.0153V16.1281C12.6448 16.0581 13.2996 15.8331 13.8793 15.4934ZM5.06867 15.5984C5.09456 15.6375 5.11568 15.6778 5.14273 15.7166C5.44363 16.1523 5.80754 16.534 6.18711 16.8959L4.94867 18.3716C4.43711 17.8928 3.95916 17.3831 3.5593 16.8059C3.5593 16.8056 3.5593 16.8053 3.5593 16.805C3.50473 16.7266 3.45689 16.6406 3.40461 16.5594L5.06867 15.5984ZM17.8599 15.5984L19.524 16.5594C19.4717 16.6406 19.4239 16.7266 19.3693 16.805C19.3693 16.8053 19.3693 16.8056 19.3693 16.8059C18.9694 17.3831 18.4915 17.8928 17.9799 18.3716L16.7415 16.8959C17.1211 16.534 17.485 16.1523 17.7859 15.7166L17.7877 15.7147C17.8143 15.6766 17.8345 15.6368 17.8599 15.5984ZM6.90148 17.5381C6.97424 17.6051 7.06592 17.648 7.16398 17.6609C7.40704 17.8257 7.63678 18.0147 7.8943 18.1503L7.89523 18.1513C8.05838 18.2395 8.22964 18.3019 8.39773 18.3753L7.74242 20.1781C7.49476 20.0739 7.24462 19.9791 7.00461 19.8519C7.00336 19.8513 7.00211 19.8506 7.00086 19.85C6.53607 19.6089 6.11292 19.2934 5.69398 18.9763L6.90148 17.5381ZM16.0271 17.5391L17.2346 18.9763C16.8157 19.2934 16.3925 19.6089 15.9277 19.85C15.9265 19.8506 15.9252 19.8513 15.924 19.8519C15.684 19.9791 15.4338 20.0739 15.1862 20.1781L14.5309 18.3753C14.699 18.3019 14.8702 18.2395 15.0334 18.1513L15.0343 18.1503C15.2918 18.0147 15.5216 17.8257 15.7646 17.6609C15.8626 17.6483 15.9542 17.6057 16.0271 17.5391ZM9.29773 18.7119C9.40756 18.7439 9.51581 18.785 9.6268 18.8122C9.62711 18.8122 9.62742 18.8122 9.62773 18.8122C10.0623 18.918 10.5239 18.9462 10.9843 18.9753V20.8944C10.3656 20.8629 9.74774 20.8182 9.17117 20.6741C9.17024 20.6738 9.1693 20.6734 9.16836 20.6731C8.98445 20.6284 8.81631 20.5666 8.64148 20.5128L9.29773 18.7119ZM13.6309 18.7119L14.2871 20.5128C14.1123 20.5666 13.9441 20.6284 13.7602 20.6731C13.7593 20.6734 13.7584 20.6738 13.7574 20.6741C13.1809 20.8182 12.563 20.8629 11.9443 20.8944V18.9753C12.4047 18.9462 12.8663 18.918 13.3009 18.8122C13.3012 18.8122 13.3015 18.8122 13.3018 18.8122C13.4128 18.785 13.521 18.7439 13.6309 18.7119ZM7.84555 21.2703C7.84703 21.2709 7.8487 21.2707 7.85023 21.2713C7.85355 21.2724 7.85627 21.2747 7.85961 21.2759L7.84555 21.2703ZM15.083 21.2703L15.069 21.2759C15.0723 21.2748 15.075 21.2725 15.0784 21.2713C15.0798 21.2707 15.0816 21.2709 15.083 21.2703Z" fill="#FEFAFA"/>
</svg>
