<svg width="23" height="22" fill="none" xmlns="http://www.w3.org/2000/svg"><path d="M11.4568.786a.4805.4805 0 0 0-.1463.0253c-.814.012-1.6141.0993-2.3718.2887-.3287.08-.6535.1811-.976.299a.48.48 0 0 0-.2156.0798c-.4123.1507-.8124.3254-1.1925.5268-.6239.324-1.2082.7264-1.755 1.1738a.48.48 0 0 0-.1884.1378c-.0511.0427-.1022.0853-.1519.1312a10.704 10.704 0 0 0-1.6884 1.9041c-.1435.2063-.275.4212-.4013.6375a.48.48 0 0 0-.106.1988 10.3263 10.3263 0 0 0-1.1652 3.2034.4802.4802 0 0 0-.047.2166c-.0278.1559-.0546.313-.0721.479a10.613 10.613 0 0 0-.075 1.2647c0 .4289.0253.8494.075 1.2647.0175.166.0443.3232.0722.4791a.4801.4801 0 0 0 .0469.2156 10.327 10.327 0 0 0 1.1634 3.2025.48.48 0 0 0 .1078.2006c.1264.2166.2576.4319.4013.6384.488.7044 1.056 1.3368 1.6865 1.9022.0496.0459.101.0877.1519.1303l.001.001a.48.48 0 0 0 .1903.1397h.0009c.5463.4468 1.1298.8491 1.7531 1.1728.38.2015.7802.3761 1.1925.5269a.4792.4792 0 0 0 .2147.0796c.3228.1181.648.219.9769.2991.7577.1894 1.5578.2767 2.3718.2888a.4803.4803 0 0 0 .3075 0c.8141-.0121 1.6142-.0994 2.3719-.2888a9.119 9.119 0 0 0 .976-.2991.4806.4806 0 0 0 .2156-.0796c.4123-.1508.8124-.3254 1.1925-.5269.6239-.324 1.2082-.7264 1.755-1.1738a.4789.4789 0 0 0 .1884-.1378c.0516-.0431.1036-.0857.1538-.1322.6304-.5654 1.1984-1.1978 1.6865-1.9022v-.0009c.1435-.2063.275-.4212.4013-.6375a.4789.4789 0 0 0 .1059-.1987 10.325 10.325 0 0 0 1.1653-3.2035.4795.4795 0 0 0 .0469-.2165c.0279-.1559.0547-.3131.0722-.4791a10.621 10.621 0 0 0 .075-1.2647c0-.4289-.0253-.8494-.075-1.2647-.0175-.166-.0443-.3231-.0722-.479a.48.48 0 0 0-.0469-.2157 10.3249 10.3249 0 0 0-1.1634-3.2025.4799.4799 0 0 0-.1078-.2006c-.1263-.2163-.2578-.4312-.4013-.6375v-.001a10.7043 10.7043 0 0 0-1.6884-1.903c-.0491-.0454-.0996-.0873-.15-.1294l-.0009-.001a.4808.4808 0 0 0-.1904-.1397h-.0009c-.5463-.4468-1.1298-.849-1.7531-1.1728-.3801-.2014-.7802-.376-1.1925-.5268a.4802.4802 0 0 0-.2147-.0797 9.1315 9.1315 0 0 0-.9769-.299C13.2322.9105 12.4321.8232 11.618.8112a.4797.4797 0 0 0-.1612-.0254Zm-3.5972.643c-.0033.0012-.006.0036-.0094.0048-.0015.0005-.0031.0003-.0046.0009l.014-.0056Zm7.2094 0 .014.0057c-.0014-.0006-.0031-.0004-.0046-.001-.0034-.0011-.0061-.0035-.0094-.0046Zm-4.0847.3816v1.919c-.4604.0292-.922.0574-1.3566.1632h-.0009c-.111.0272-.2192.0684-.329.1003l-.6563-1.801c.1748-.0537.343-.1155.5269-.1602l.0028-.001c.5765-.1441 1.1944-.1888 1.8131-.2203Zm.96 0c.6187.0315 1.2366.0762 1.8131.2203a.13.13 0 0 1 .0028.001c.1839.0447.3521.1065.5269.1603l-.6562 1.801c-.1099-.032-.2181-.0732-.3291-.1004h-.0009c-.4346-.1058-.8962-.134-1.3566-.1631v-1.919Zm-4.2019.7163.6553 1.8028c-.168.0734-.3393.1358-.5025.224l-.0009.001c-.2575.1356-.4873.3247-.7303.4894a.4801.4801 0 0 0-.2625.1228L5.694 3.7288c.419-.3172.8421-.6327 1.3069-.8738l.0037-.0019c.24-.1272.4902-.222.7378-.3262Zm7.4438 0c.2476.1042.4978.199.7378.3262l.0037.002c.4648.241.888.5565 1.3069.8737l-1.2075 1.438a.48.48 0 0 0-.2625-.1218c-.2432-.1648-.4726-.3546-.7303-.4903-.1635-.0885-.335-.1514-.5034-.225l.6553-1.8028ZM4.9487 4.3334 6.187 5.8091c-.3802.3625-.745.7446-1.0462 1.1812-.0266.0381-.0468.078-.0722.1163l-1.664-.961c.0522-.0812.1-.1672.1546-.2456v-.001c.4007-.5783.879-1.0906 1.3894-1.5656Zm13.0312 0c.5104.475.9886.9873 1.3894 1.5657V5.9c.0546.0783.1024.1643.1547.2455l-1.6641.961c-.0254-.0384-.0456-.0782-.0722-.1163l-.0018-.0019c-.3009-.4357-.6648-.8174-1.0444-1.1793l1.2384-1.4757Zm-6.9956.3563v1.8872c-.7005.07-1.3553.295-1.935.6347L7.9337 5.6769c.14-.0866.2619-.1965.4087-.2738a.447.447 0 0 0 .0047-.0028c.2437-.1321.505-.2436.7716-.3431a.4795.4795 0 0 0 .105-.0403 5.9 5.9 0 0 1 .6319-.1922l-.001.001c.3619-.0882.7473-.1084 1.1297-.136Zm.96 0c.3824.0276.7677.0478 1.1297.136l-.001-.001c.2228.0546.4307.118.6329.1922a.479.479 0 0 0 .1068.0412c.2656.0993.526.2105.7688.3422l.0047.0028c.1468.0773.2687.1872.4087.2738l-1.1156 1.5347c-.5797-.3397-1.2345-.5647-1.935-.6347V4.6897ZM7.1406 6.2178l1.1334 1.56c-.5085.4544-.9219 1.0127-1.201 1.6444l-1.8234-.5944c.1082-.2735.2271-.5394.3722-.7884a.48.48 0 0 0 .0553-.0985c.0813-.1397.1638-.2749.2531-.403l.001-.002a6.7874 6.7874 0 0 1 1.0781-1.2168c.0296-.0267.0466-.0407.0675-.0582l.0019-.0009a.4809.4809 0 0 0 .0618-.0422Zm8.6474 0a.489.489 0 0 0 .06.0403c.0217.018.0401.0329.0713.061a6.7876 6.7876 0 0 1 1.0791 1.2188c.0895.1283.1717.264.2531.404a.477.477 0 0 0 .0562.1003l.001.001c.1433.2462.2623.5111.3731.7837l-1.8263.5953c-.279-.6317-.6924-1.19-1.2009-1.6444l1.1334-1.56Zm-12.8437.7697 1.664.96c-.111.2239-.234.4428-.3206.6769v.001c-.0251.0643-.0337.1363-.0572.2015a.48.48 0 0 0-.0984.3544 7.0185 7.0185 0 0 0-.104.3703l-1.8938-.3338a9.3488 9.3488 0 0 1 .81-2.2303Zm17.04 0a9.348 9.348 0 0 1 .81 2.2303l-1.8919.3338a7.0181 7.0181 0 0 0-.105-.3788.4805.4805 0 0 0-.0937-.3384c-.0243-.0682-.0318-.1426-.0582-.21-.0891-.2332-.2118-.4535-.3234-.6778l1.6622-.959Zm-8.5763.5278a.4804.4804 0 0 0 .1163 0c.7805.012 1.5037.2531 2.1037.6619a.4804.4804 0 0 0 .1754.1312 3.8293 3.8293 0 0 1 1.275 1.7541.4803.4803 0 0 0 .0712.2147c.0989.3414.1547.7013.1547 1.0753 0 .3734-.0561.7326-.1547 1.0734a.48.48 0 0 0-.0712.2166 3.8282 3.8282 0 0 1-1.2732 1.7522.48.48 0 0 0-.1772.1331c-.6009.4095-1.3255.6506-2.1075.6619a.4806.4806 0 0 0-.1162 0c-1.6463-.0253-3.0318-1.0777-3.554-2.5472a.4802.4802 0 0 0-.0713-.2147 3.8543 3.8543 0 0 1-.1547-1.0753c0-.3734.056-.7326.1547-1.0734a.4799.4799 0 0 0 .0712-.2166c.5227-1.4706 1.91-2.5235 3.5578-2.5472Zm6.5569 2.2285c.0326.1319.0846.256.1088.3918a.4807.4807 0 0 0 .0206.1097c.0149.1007.03.1988.0403.2916v.0037c.0315.266.0497.5401.0497.8119 0 .2718-.0181.5459-.0497.8119v.0037c-.0104.0934-.0253.1921-.0403.2935a.4803.4803 0 0 0-.0206.1068c-.0242.1362-.0762.2606-.1088.3929l-1.8122-.5897a4.7824 4.7824 0 0 0 .1116-1.0191c0-.3499-.04-.6902-.1116-1.0191l1.8122-.5896Zm-12.9993.0009 1.8103.5887a4.7856 4.7856 0 0 0-.1116 1.0191c0 .3499.04.6902.1116 1.0191l-1.8103.5887c-.0332-.1317-.0866-.257-.1107-.3919a.4799.4799 0 0 0-.0206-.1087c-.015-.1007-.03-.1988-.0403-.2916v-.0037a6.9294 6.9294 0 0 1-.0497-.8119c0-.2718.0181-.5459.0497-.8119v-.0037c.0104-.0934.0253-.192.0403-.2935a.4794.4794 0 0 0 .0206-.1059c.0241-.1352.0774-.2608.1107-.3928Zm-3.0272.4134 1.8984.3347c-.0311.2805-.0525.5682-.0525.8597s.0214.5792.0525.8597l-1.8984.3347c-.0011-.0099-.0037-.0201-.0047-.03a9.6398 9.6398 0 0 1-.0694-1.1644 9.6398 9.6398 0 0 1 .0694-1.1644c.001-.0099.0035-.02.0047-.03Zm19.0518 0c.0011.01.0037.0201.0047.03l.001.0075c.0456.3791.0684.7627.0684 1.1569a9.6543 9.6543 0 0 1-.0694 1.1644c-.001.0099-.0036.0201-.0047.03l-1.8984-.3347c.0311-.2805.0525-.5682.0525-.8597s-.0214-.5792-.0525-.8597l1.8984-.3347ZM4.028 13.1534c.031.1256.0667.2487.1041.3713a.4799.4799 0 0 0 .0984.3534c.0235.0652.0321.1373.0572.2016v.0009c.0866.2342.2097.453.3207.6769l-1.6641.96a9.3492 9.3492 0 0 1-.81-2.2303l1.8938-.3338Zm14.8744 0 1.8919.3338a9.3483 9.3483 0 0 1-.81 2.2303l-1.6622-.9591c.1116-.2242.2343-.4445.3234-.6778.0265-.0677.0338-.1424.0582-.2109a.48.48 0 0 0 .0937-.3394c.0375-.1246.0744-.2496.105-.3769Zm-11.8293.1294c.279.6317.6924 1.19 1.2009 1.6444l-1.1334 1.56a.4822.4822 0 0 0-.06-.0403c-.0217-.0179-.0401-.0329-.0713-.061l-.0019-.0018a6.7898 6.7898 0 0 1-1.0762-1.215.028.028 0 0 0-.001-.0019c-.0895-.1284-.1717-.2641-.253-.4041a.4827.4827 0 0 0-.0563-.1003v-.0009c-.1443-.248-.2636-.5124-.3713-.7847l1.8235-.5944Zm8.7824 0 1.8263.5953c-.1112.2736-.231.5395-.375.7866a.4786.4786 0 0 0-.0553.0994c-.0813.1397-.1638.2749-.2531.4031a.0114.0114 0 0 0-.001.0019 6.79 6.79 0 0 1-1.0762 1.215l-.0019.0018c-.0296.0267-.0466.0407-.0675.0582-.0005.0004-.0014.0005-.0019.0009a.4725.4725 0 0 0-.0619.0422l-1.1334-1.56c.5085-.4544.9219-1.0127 1.2009-1.6444Zm-6.8062 2.2106c.5797.3397 1.2345.5647 1.935.6347v1.8872c-.3824-.0276-.7677-.0478-1.1297-.1359l.001.0009a5.873 5.873 0 0 1-.6329-.1922.4815.4815 0 0 0-.1068-.0412c-.2656-.0993-.526-.2105-.7688-.3422a.1093.1093 0 0 0-.0047-.0028c-.1468-.0773-.2687-.1872-.4087-.2738l1.1156-1.5347Zm4.83 0 1.1156 1.5347c-.14.0866-.2619.1965-.4087.2738l-.0047.0028c-.2437.1321-.5051.2436-.7716.3431a.4826.4826 0 0 0-.105.0403 5.8793 5.8793 0 0 1-.6319.1922l.001-.0009c-.362.0881-.7473.1083-1.1297.1359v-1.8872c.7005-.07 1.3553-.295 1.935-.6347Zm-8.8106.105c.0259.0391.047.0794.074.1182.301.4357.6648.8174 1.0444 1.1793l-1.2384 1.4757c-.5116-.4788-.9895-.9885-1.3894-1.5657v-.0009c-.0546-.0784-.1024-.1644-.1547-.2456l1.664-.961Zm12.7912 0 1.6641.961c-.0523.0812-.1001.1672-.1547.2456v.0009c-.3999.5772-.8778 1.0869-1.3894 1.5657l-1.2384-1.4757c.3796-.3619.7435-.7436 1.0444-1.1793l.0018-.0019c.0266-.0381.0468-.0779.0722-.1163ZM6.9015 17.5381a.48.48 0 0 0 .2625.1228c.243.1648.4728.3538.7303.4894l.001.001c.163.0882.3343.1506.5024.224l-.6553 1.8028c-.2476-.1042-.4978-.199-.7378-.3262L7.001 19.85c-.4648-.2411-.888-.5566-1.307-.8737l1.2076-1.4382Zm9.1256.001 1.2075 1.4372c-.4189.3171-.8421.6326-1.3069.8737l-.0037.0019c-.24.1272-.4902.222-.7378.3262l-.6553-1.8028c.1681-.0734.3393-.1358.5025-.224l.0009-.001c.2575-.1356.4873-.3246.7303-.4894a.48.48 0 0 0 .2625-.1218Zm-6.7294 1.1728c.1099.032.2181.0731.3291.1003h.001c.4345.1058.8961.134 1.3565.1631v1.9191c-.6187-.0315-1.2366-.0762-1.8131-.2203l-.0028-.001c-.184-.0447-.352-.1065-.527-.1603l.6563-1.8009Zm4.3332 0 .6562 1.8009c-.1748.0538-.343.1156-.5269.1603l-.0028.001c-.5765.1441-1.1944.1888-1.8131.2203v-1.9191c.4604-.0291.922-.0573 1.3566-.1631h.0009c.111-.0272.2192-.0683.3291-.1003Zm-5.7854 2.5584c.0015.0006.0032.0004.0047.001.0034.0011.006.0034.0094.0046l-.014-.0056Zm7.2375 0-.014.0056c.0033-.0011.006-.0034.0094-.0046.0014-.0006.0032-.0004.0046-.001Z" fill="#FEFAFA"/></svg>