<svg width="86" height="67" fill="none" xmlns="http://www.w3.org/2000/svg"><path d="M81.2136 6.4854h-5.6729V5.0672c0-2.3498-1.9049-4.2547-4.2547-4.2547h-8.5093v.0326a5.5964 5.5964 0 0 0-3.5285 1.2168L42.3274 15.7038a4.2406 4.2406 0 0 0-3.6604-2.1273H15.9754c-2.3498 0-4.2546 1.9049-4.2546 4.2547v9.9275H4.6297c-2.3498 0-4.2547 1.9049-4.2547 4.2547v19.8551c.0076 1.8014 1.1488 3.4029 2.8492 3.9979 0 .0851-.0128.1702-.0128.2567 0 5.4829 4.4448 9.9276 9.9276 9.9276s9.9275-4.4447 9.9275-9.9276h8.5094c-.0062 5.3 4.1518 9.6702 9.4456 9.9275 5.2937.2573 9.856-3.6891 10.3638-8.9647.5078-5.2756-3.218-10.0197-8.4637-10.7769V34.9633l19.9587-20.4749c.4279 1.9503 2.1544 3.3406 4.1511 3.3428h2.8364v8.5093c0 1.5665 1.2699 2.8364 2.8365 2.8364v11.428c-4.0717.4383-7.0911 2.733-7.0911 5.5907s3.0194 5.1524 7.0911 5.5906v11.428c0 .7833.6349 1.4183 1.4182 1.4183.7833 0 1.4182-.635 1.4182-1.4183v-2.9187c4.0717-.4382 7.0911-2.7329 7.0911-5.5906 0-2.8577-3.0194-5.1524-7.0911-5.5906v-5.8374c4.0717-.4383 7.0911-2.7329 7.0911-5.5907 0-2.8577-3.0194-5.1523-7.0911-5.5906v-2.9187c1.5665 0 2.8365-1.2699 2.8365-2.8364v-8.5093h2.8364c2.3498 0 4.2547-1.9049 4.2547-4.2547V10.74c0-2.3497-1.9049-4.2546-4.2547-4.2546Zm-12.764 39.7102c0-1.1346 1.7501-2.3727 4.2547-2.7273v5.4545c-2.5046-.3545-4.2547-1.5926-4.2547-2.7272Zm11.3458 8.5093c0 1.1346-1.7501 2.3727-4.2547 2.7272v-5.4544c2.5046.3545 4.2547 1.5926 4.2547 2.7272Zm0-17.0187c0 1.1346-1.7501 2.3727-4.2547 2.7273V34.959c2.5046.3546 4.2547 1.5927 4.2547 2.7272Zm-7.0911-32.619v1.4182h-4.2745a5.632 5.632 0 0 0-.746-2.8365h3.6022c.7833 0 1.4183.635 1.4183 1.4183Zm-32.6191 12.764v19.855H23.0665c-.7832 0-1.4182-.6349-1.4182-1.4182V16.4129H38.667c.7832 0 1.4182.635 1.4182 1.4183ZM3.2114 51.8685V32.0134c0-.7833.635-1.4183 1.4183-1.4183h7.0911V46.309c-3.6953.539-6.777 3.1031-7.979 6.6387a1.3926 1.3926 0 0 1-.5304-1.0792Zm9.9276 11.3457c-3.9163 0-7.0911-3.1748-7.0911-7.0911s3.1748-7.0911 7.0911-7.0911 7.0911 3.1748 7.0911 7.0911c-.0047 3.9144-3.1767 7.0864-7.0911 7.0911Zm9.5092-9.9275c-1.1125-3.7002-4.2675-6.4211-8.091-6.9777V17.8312c0-.7833.635-1.4183 1.4182-1.4183h2.8365V36.268c0 2.3498 1.9049 4.2547 4.2546 4.2547h17.0187v5.7863c-3.8208.5592-6.9725 3.2796-8.0839 6.9777h-9.3531Zm25.9463 2.8364c0 3.9163-3.1748 7.0911-7.0911 7.0911s-7.0911-3.1748-7.0911-7.0911 3.1748-7.0911 7.0911-7.0911c3.9144.0047 7.0864 3.1768 7.0911 7.0911ZM42.9216 18.865 61.0281 4.2715a2.8236 2.8236 0 0 1 3.971.4397 2.7374 2.7374 0 0 1 .5914 2.0437 4.2406 4.2406 0 0 0-2.784 3.7526L42.9216 30.8958V18.865Zm32.6191 7.4755h-2.8364v-8.5093h2.8364v8.5093Zm7.0911-12.764c0 .7833-.6349 1.4182-1.4182 1.4182H67.0314c-.7833 0-1.4182-.6349-1.4182-1.4182V10.74c0-.7832.6349-1.4182 1.4182-1.4182h14.1822c.7833 0 1.4182.635 1.4182 1.4182v2.8365Z" fill="#F1F5F7"/><path d="M25.9029 23.5041a1.4183 1.4183 0 0 0 1.0027-.4156l1.4182-1.4182c.5375-.5565.5298-1.441-.0172-1.9881-.5471-.547-1.4316-.5547-1.9881-.0172l-1.4182 1.4182a1.418 1.418 0 0 0 1.0026 2.4209ZM25.9029 30.5952a1.4187 1.4187 0 0 0 1.0027-.4155l8.5093-8.5094c.5375-.5565.5298-1.441-.0172-1.9881-.5471-.547-1.4316-.5547-1.9881-.0172l-8.5093 8.5093a1.4182 1.4182 0 0 0 1.0026 2.4209ZM13.1389 51.8684c-2.3497 0-4.2546 1.9049-4.2546 4.2547 0 2.3498 1.9049 4.2546 4.2546 4.2546 2.3498 0 4.2547-1.9048 4.2547-4.2546s-1.9049-4.2547-4.2547-4.2547Zm0 5.6729c-.7832 0-1.4182-.635-1.4182-1.4182 0-.7833.635-1.4182 1.4182-1.4182.7833 0 1.4183.6349 1.4183 1.4182 0 .7832-.635 1.4182-1.4183 1.4182ZM37.2488 56.1231c0 2.3498 1.9049 4.2546 4.2546 4.2546 2.3498 0 4.2547-1.9048 4.2547-4.2546s-1.9049-4.2547-4.2547-4.2547c-2.3497 0-4.2546 1.9049-4.2546 4.2547Zm5.6729 0c0 .7832-.635 1.4182-1.4183 1.4182-.7832 0-1.4182-.635-1.4182-1.4182 0-.7833.635-1.4182 1.4182-1.4182.7833 0 1.4183.6349 1.4183 1.4182ZM24.4846 43.3591h-1.4182c-.7832 0-1.4182.635-1.4182 1.4182 0 .7833.635 1.4183 1.4182 1.4183h1.4182c.7833 0 1.4183-.635 1.4183-1.4183 0-.7832-.635-1.4182-1.4183-1.4182Z" fill="#F1F5F7"/></svg>