<svg width="86" height="78" fill="none" xmlns="http://www.w3.org/2000/svg"><path d="M80.111 14.0278h-3.3447l.0033-5.9794c.0019-4.0144-3.2619-7.282-7.2769-7.284L44.108.75h-.0032c-1.4449 0-2.8037.5626-3.8257 1.5846L2.3821 40.2315C1.0071 41.6066.25 43.4346.25 45.3795c0 1.9448.757 3.7728 2.1321 5.1479L26.976 75.1211c1.4194 1.4195 3.284 2.1289 5.1479 2.1289 1.8646 0 3.7291-.7094 5.1486-2.1289L61.1326 51.261c.6526-.6527.6526-1.7106 0-2.3626-.6527-.6526-1.7106-.6526-2.3632 0L34.9092 72.7586c-1.5356 1.5356-4.0345 1.5356-5.5702 0L4.7453 48.1649c-.744-.744-1.1538-1.7334-1.1538-2.7854 0-1.0521.4098-2.0415 1.1538-2.7855L42.6416 4.6978a2.0555 2.0555 0 0 1 1.4632-.6063h.0013l25.3847.0143c2.1719.0007 3.9386 1.7693 3.9373 3.9413l-.0078 14.0002h-7.5255c-.6481 0-1.2348-.265-1.659-.6918a6.1298 6.1298 0 0 0 1.924-1.302c2.401-2.4017 2.401-6.3083 0-8.7094-2.4017-2.4016-6.3084-2.4016-8.71 0-2.4011 2.4011-2.4011 6.3077 0 8.7094.8902.8902 1.9879 1.4495 3.1385 1.6799.8177 2.1347 2.8872 3.6553 5.3065 3.6553h7.5235l-.0045 8.0091a2.0516 2.0516 0 0 1-.6063 1.4619l-4.5867 4.5874c-.6527.6526-.6527 1.7105 0 2.3631.652.652 1.7099.652 2.3625 0l4.5873-4.5873c1.0207-1.0214 1.584-2.3789 1.5846-3.8231l.0046-8.0111h3.3512c3.132 0 5.6805-2.5478 5.6805-5.6804 0-3.132-2.5485-5.6805-5.6805-5.6805Zm-20.2981-.3211c.5496-.5495 1.2707-.8237 1.9925-.8237.7212 0 1.4423.2748 1.9918.8237.1736.1742.3172.3667.436.5697-1.8339.5619-3.2749 2.0297-3.8016 3.8792a2.8003 2.8003 0 0 1-.6187-.4646c-1.0983-1.0991-1.0983-2.886 0-3.9843Zm20.2981 8.3406h-3.3493l.0027-4.6781h3.3466c1.2896 0 2.3391 1.0495 2.3391 2.3391 0 1.2895-1.0495 2.339-2.3391 2.339Z" fill="#fff"/><path d="M27.2179 42.9034c.2056.7394.8772 1.223 1.6081 1.223.1488 0 .2996-.0196.449-.0613l17.1511-4.774c.8889-.2474 1.4091-1.1689 1.1617-2.0578-.2473-.8882-1.1682-1.4083-2.0577-1.161L28.379 40.8457c-.8883.248-1.4084 1.1688-1.1611 2.0577ZM34.7676 45.108c-.9307.9306-1.443 2.1674-1.443 3.4837 0 1.3157.5123 2.5525 1.443 3.4831.9606.96 2.2215 1.4404 3.483 1.4404 1.2616 0 2.5231-.4804 3.4838-1.4404 1.9207-1.9207 1.9207-5.0461 0-6.9668s-5.0462-1.9207-6.9668 0Zm4.6036 4.6037c-.618.618-1.6231.618-2.2411 0a1.5722 1.5722 0 0 1-.464-1.1206c0-.4229.1651-.821.464-1.1206a1.5822 1.5822 0 0 1 1.1205-.4633 1.58 1.58 0 0 1 1.1206.4633c.618.6181.618 1.6238 0 2.2412ZM42.562 35.1605c1.9207-1.9213 1.9207-5.0461 0-6.9668-.9306-.9307-2.168-1.443-3.4837-1.443-1.3157 0-2.5531.5123-3.4831 1.443-1.9207 1.9207-1.9207 5.0455 0 6.9668.9607.96 2.2215 1.4404 3.4831 1.4404 1.2615 0 2.523-.4804 3.4837-1.4404Zm-4.6043-4.6043a1.5747 1.5747 0 0 1 1.1206-.464c.4235 0 .8216.1645 1.1205.464.6181.6181.6181 1.6231 0 2.2412-.6174.618-1.6231.618-2.2411 0-.6174-.6181-.6174-1.6231 0-2.2412Z" fill="#fff"/><path d="M16.8673 39.4509c-.6526-.6526-1.7105-.6526-2.3631 0l-4.7473 4.7473a1.6705 1.6705 0 0 0 0 2.3625L30.9433 67.747a1.6658 1.6658 0 0 0 1.1812.4888c.4275 0 .855-.1631 1.1813-.4888l31.676-31.6767c.6527-.6526.6527-1.7105 0-2.3632L43.7962 12.5215a1.6707 1.6707 0 0 0-1.1813-.4895c-.4431 0-.868.1762-1.1813.4895l-17.4781 17.478c-.6526.6527-.6526 1.7106 0 2.3632.652.652 1.7099.652 2.3626 0l16.2968-16.2968L61.4381 34.889 32.1245 64.2026 13.3014 45.3794l3.5659-3.566c.652-.6526.6527-1.7098 0-2.3625ZM64.677 43.6832c-.4399 0-.8706.1788-1.1813.4895a1.6839 1.6839 0 0 0-.4895 1.1813c0 .4392.1788.8706.4895 1.1812a1.6828 1.6828 0 0 0 1.1813.4895c.4392 0 .8699-.1788 1.1812-.4895a1.6837 1.6837 0 0 0 .4895-1.1812c0-.4393-.1788-.8706-.4895-1.1813-.3113-.3107-.742-.4895-1.1812-.4895Z" fill="#fff"/><path d="M21.5917 37.0871c.3126-.3107.4901-.7401.4901-1.1813 0-.4392-.1775-.8686-.4901-1.1812a1.6801 1.6801 0 0 0-1.1806-.4895c-.4399 0-.8706.1788-1.1813.4895-.3113.3106-.4894.742-.4894 1.1812 0 .4412.1781.8706.4894 1.1813a1.677 1.677 0 0 0 1.1813.4895c.4405 0 .8699-.1769 1.1806-.4895Z" fill="#fff"/></svg>