<svg width="78" height="78" fill="none" xmlns="http://www.w3.org/2000/svg"><path d="M73.425 12.225H64.5v-2.55a3.8363 3.8363 0 0 0-3.825-3.825H51.75V2.025A1.275 1.275 0 0 0 50.475.75H2.025A1.275 1.275 0 0 0 .75 2.025v71.4A1.2752 1.2752 0 0 0 2.025 74.7h38.4795A3.8378 3.8378 0 0 0 44.1 77.25h7.65a3.8361 3.8361 0 0 0 2.7013-1.1237 3.8361 3.8361 0 0 0 1.1237-2.7013V51.75h1.275a1.2752 1.2752 0 0 0 1.275-1.275v-5.1A1.275 1.275 0 0 0 56.85 44.1h-5.1V39h21.675a3.8361 3.8361 0 0 0 2.7013-1.1237A3.8361 3.8361 0 0 0 77.25 35.175V16.05a3.8361 3.8361 0 0 0-1.1237-2.7013 3.8361 3.8361 0 0 0-2.7013-1.1237Zm-8.925 10.2v-2.55h5.1V31.35H51.75v-5.1h8.925a3.8361 3.8361 0 0 0 2.7013-1.1237A3.8361 3.8361 0 0 0 64.5 22.425ZM60.675 8.4a1.2752 1.2752 0 0 1 1.275 1.275v12.75a1.275 1.275 0 0 1-1.275 1.275h-45.9a1.275 1.275 0 0 1-1.275-1.275V9.675A1.275 1.275 0 0 1 14.775 8.4h45.9Zm-28.05 19.125a3.8361 3.8361 0 0 0-2.7013 1.1237A3.8361 3.8361 0 0 0 28.8 31.35v8.925a1.275 1.275 0 1 1-2.55 0V36.45a3.825 3.825 0 1 0-7.65 0v14.025a1.275 1.275 0 1 1-2.55 0V26.25H39v10.2a1.275 1.275 0 1 1-2.55 0v-5.1a3.8361 3.8361 0 0 0-1.1237-2.7013 3.8361 3.8361 0 0 0-2.7013-1.1237Zm7.65 44.625H3.3V3.3h45.9v2.55H14.775a3.8363 3.8363 0 0 0-3.825 3.825v2.55H9.675a2.5575 2.5575 0 0 0-2.55 2.55v2.55a2.5577 2.5577 0 0 0 2.55 2.55h1.275v2.55a3.838 3.838 0 0 0 2.55 3.5955V50.475a3.825 3.825 0 1 0 7.65 0V36.45a1.275 1.275 0 1 1 2.55 0v3.825a3.825 3.825 0 1 0 7.65 0V31.35a1.275 1.275 0 1 1 2.55 0v5.1a3.825 3.825 0 1 0 7.65 0v-10.2h7.65v5.1h-1.275a3.8361 3.8361 0 0 0-2.7013 1.1237A3.8361 3.8361 0 0 0 44.1 35.175V44.1H39a1.275 1.275 0 0 0-1.275 1.275v5.1A1.275 1.275 0 0 0 39 51.75h1.275v20.4ZM10.95 14.775v2.55H9.675v-2.55h1.275Zm42.075 58.65A1.2752 1.2752 0 0 1 51.75 74.7H44.1a1.275 1.275 0 0 1-1.275-1.275V51.75h10.2v21.675Zm2.55-26.775v2.55h-15.3v-2.55h15.3ZM74.7 35.175a1.275 1.275 0 0 1-1.275 1.275H51.75A2.5575 2.5575 0 0 0 49.2 39v5.1h-2.55v-8.925a1.275 1.275 0 0 1 1.275-1.275H69.6a2.5575 2.5575 0 0 0 2.55-2.55V19.875a2.5575 2.5575 0 0 0-2.55-2.55h-5.1v-2.55h8.925A1.2752 1.2752 0 0 1 74.7 16.05v19.125Z" fill="#CA2C37"/><path d="M17.3249 56.85a3.8248 3.8248 0 0 0-3.7515 4.5712 3.825 3.825 0 1 0 3.7515-4.5712Zm0 5.1a1.275 1.275 0 1 1 .0002-2.5502 1.275 1.275 0 0 1-.0002 2.5502ZM27.525 46.65a3.8248 3.8248 0 0 0-3.5338 2.3613 3.8247 3.8247 0 0 0 2.7876 5.2152 3.825 3.825 0 1 0 .7462-7.5765Zm0 5.1a1.2745 1.2745 0 0 1-1.1779-.7871 1.2748 1.2748 0 0 1 1.6658-1.6658A1.2747 1.2747 0 0 1 28.8 50.475a1.275 1.275 0 0 1-1.275 1.275ZM16.05 12.225a1.275 1.275 0 0 0 1.275 1.275H51.75a1.275 1.275 0 1 0 0-2.55H17.325a1.2747 1.2747 0 0 0-1.275 1.275ZM56.85 13.5h1.275a1.275 1.275 0 1 0 0-2.55H56.85a1.2747 1.2747 0 0 0-1.275 1.275A1.275 1.275 0 0 0 56.85 13.5Z" fill="#CA2C37"/></svg>