<svg width="19" height="18" fill="none" xmlns="http://www.w3.org/2000/svg"><path fill-rule="evenodd" clip-rule="evenodd" d="M4.1194 1.8023a1.972 1.972 0 0 0-.458.0521c-.1997-.4424-.4635-.8393-.7635-1.1408C2.3885.2018 1.5855 0 .4735 0v1.8c.6792 0 1.07.0982 1.1578.1864.3385.3402.6332 1.0314.6332 1.6136l.009.1273.8775 6.1732C1.683 9.977.5454 11.1229.4747 12.5554l-.001.9446c.0866 1.4795 1.2203 2.6177 2.6356 2.6985l.2033.0004C3.6811 17.2481 4.6765 18 5.8466 18c1.1698 0 2.1649-.7513 2.5337-1.8h2.0967c.3688 1.0487 1.3639 1.8 2.5337 1.8 1.4837 0 2.6865-1.2088 2.6865-2.7s-1.2028-2.7-2.6865-2.7c-1.1698 0-2.1649.7513-2.5337 1.8H8.3803c-.3688-1.0487-1.364-1.8-2.5336-1.8-1.1698 0-2.1649.7513-2.5337 1.8h-.1529c-.4567-.0275-.8663-.4388-.897-.9539l.0015-.8461c.0242-.4668.431-.8757.94-.9011l1.7678.0004.0128.0007h9.0256l.1322-.0422a2.3555 2.3555 0 0 0 1.4799-1.3955l.0943-.1877.3065-.6103c.3171-.6318.6343-1.2646.9433-1.8829.7569-1.5144 1.2329-2.4769 1.3383-2.7133.5414-1.2137-.5553-2.1479-1.6762-2.1678l-12.5097-.898ZM13.6997 9.9H5.0522a.1528.1528 0 0 1-.1099-.126l-.8775-6.1733 12.4324.8947c-.2175.4459-.613 1.2422-1.1307 2.278l-.0129.026c-.2956.5913-.6122 1.2233-.9289 1.8542l-.3062.6095-.116.2309-.0437.102a.562.562 0 0 1-.2591.304Zm-.689 6.3c.4945 0 .8955-.4029.8955-.9 0-.4971-.401-.9-.8955-.9-.4946 0-.8955.4029-.8955.9 0 .4971.4009.9.8955.9Zm-6.2686-.9c0 .4971-.4009.9-.8954.9-.4946 0-.8956-.4029-.8956-.9 0-.4971.401-.9.8956-.9.4945 0 .8954.4029.8954.9Z" fill="#fff"/></svg>