<svg width="108" height="18" fill="none" xmlns="http://www.w3.org/2000/svg"><path fill-rule="evenodd" clip-rule="evenodd" d="M103.458 2.6585v14.7913h-2.11V2.6585h-3.7509V1.0151h9.6119v1.6434h-3.751Zm-8.1234 8.6987c-.3673.4618-.8283.7905-1.3832.9861-.5549.1957-1.2152.2935-1.9811.2935-.3595 0-.7658-.0235-1.2191-.0704-.4533-.047-.8284-.1018-1.1254-.1644v5.0478h-2.11v-16.2A11.0428 11.0428 0 0 1 89.3093.886c.6018-.0704 1.2543-.1056 1.9577-.1056.9378 0 1.7349.0978 2.3913.2934.6565.1957 1.1879.5205 1.5943.9744.4064.454.7033 1.0565.8909 1.8078.1876.7513.2813 1.6826.2813 2.794 0 1.1425-.0898 2.0973-.2696 2.8643-.1797.7669-.4533 1.3813-.8206 1.843ZM94.139 4.5368c-.1173-.5635-.3009-1.0096-.551-1.3383-.2501-.3287-.5666-.5595-.9495-.6926-.3829-.133-.8401-.1995-1.3715-.1995h-1.6412v8.6869h1.6412c.5314 0 .9886-.0665 1.3715-.1995.3829-.1331.6994-.364.9495-.6927s.4337-.7747.551-1.3382c.1172-.5635.1758-1.2678.1758-2.113 0-.8453-.0586-1.5496-.1758-2.1131Zm-11.8983 8.687h-4.6889l-1.055 4.226h-2.1101l3.9857-16.4347h3.0478l3.9856 16.4347h-2.11l-1.0551-4.226Zm-2.2976-9.861h-.0937l-1.9459 8.2175h3.9856l-1.946-8.2174ZM69.815 5.2412h-.1172l-3.3995 10.0957h-2.11L60.7888 5.2411h-.1172l-.7034 12.2087h-2.11l.9378-16.4347h2.5789l3.8215 11.2695h.0938l3.8215-11.2695h2.5789l.9378 16.4347h-2.11L69.815 5.2411ZM54.0601 15.9238c-.4376.6417-.9651 1.0956-1.5825 1.3617-.6174.2661-1.3246.3991-2.1217.3991-.7972 0-1.5044-.133-2.1218-.3991s-1.1449-.72-1.5825-1.3617c-.4377-.6418-.7698-1.5066-.9964-2.5944-.2267-1.0878-.34-2.4535-.34-4.097 0-1.6434.1133-3.009.34-4.097.2266-1.0877.5587-1.9525.9964-2.5943.4376-.6417.9651-1.0956 1.5825-1.3617.6174-.266 1.3246-.3991 2.1218-.3991.7971 0 1.5043.133 2.1217.3991.6174.266 1.1449.72 1.5825 1.3617.4377.6418.7698 1.5066.9964 2.5944.2267 1.0878.34 2.4535.34 4.097 0 1.6434-.1133 3.0091-.34 4.0969-.2266 1.0878-.5587 1.9526-.9964 2.5944ZM53.0403 5.7577c-.1641-.9079-.379-1.6279-.6448-2.16-.2657-.5322-.5783-.9-.9377-1.1035-.3595-.2035-.7268-.3052-1.1019-.3052-.3752 0-.7425.1017-1.102.3052-.3594.2035-.672.5713-.9377 1.1035-.2658.5321-.4807 1.2521-.6448 2.16-.1641.9078-.2461 2.066-.2461 3.4748 0 1.4086.082 2.5669.2461 3.4747.1641.9079.379 1.6279.6448 2.16.2657.5322.5783.9.9377 1.1035.3595.2035.7268.3052 1.102.3052.3751 0 .7424-.1017 1.1019-.3052.3594-.2035.672-.5713.9377-1.1035.2658-.5321.4807-1.2521.6448-2.16.1641-.9078.2461-2.0661.2461-3.4748 0-1.4086-.082-2.567-.2461-3.4747ZM40.3918 9.9368h-4.9234v7.513h-2.11V1.0151h2.11v7.2782h4.9234V1.0151h2.1101v16.4347h-2.1101v-7.513Zm-11.1355 7.513-2.9306-7.0434-2.9306 7.0434h-2.11l3.5167-8.4521-3.165-7.9826h2.11l2.5789 6.5739 2.579-6.574h2.11l-3.165 7.9827 3.5167 8.4521h-2.1101ZM12.0244 1.0151h7.9713v1.6434h-5.8612v5.4h5.1578V9.702h-5.1578v6.1044h5.8612v1.6434h-7.9713V1.0151ZM6.3977 17.4498h-2.11V2.6585H.5365V1.0151h9.6124v1.6434H6.3977v14.7913Z" fill="#fff"/></svg>