<svg width="17" height="16" fill="none" xmlns="http://www.w3.org/2000/svg"><path fill-rule="evenodd" clip-rule="evenodd" d="M7.5298 5.0704c.4139-.5586.5623-1.1473.0942-1.6669-1.0504-1.472-1.757-2.3823-2.2-2.8206-.8425-.8334-2.2283-.7207-2.958-.0007a67.2527 67.2527 0 0 0-.9269.9287C-.7022 3.7567.6647 8.504 4.2983 12.1465c3.6328 3.6415 8.373 5.0111 10.619 2.7606.3713-.3584.6857-.6734.9337-.9359.715-.7568.8235-2.0834-.0048-2.9452-.4246-.4419-1.2914-1.1152-2.8231-2.2124-.4691-.42-1.0254-.329-1.5353.006-.2453.1612-.4238.3242-.7609.6621l-.6122.6133c-.0806.0808-1.1753-.4682-2.238-1.5335-1.0633-1.0658-1.6112-2.1622-1.531-2.2426l.6126-.6137c.107-.1072.158-.1591.2237-.2281.1366-.1438.2497-.2743.3478-.4067Zm3.7141 6.156.6122-.6135c.1855-.1859.3058-.3003.4036-.3791 1.3418.965 2.1189 1.5717 2.4363 1.902.1906.1983.161.5601-.0047.7355-.2293.2426-.5271.5411-.8927.8942-1.4523 1.455-5.2787.3495-8.3709-2.7502-3.0932-3.1006-4.1966-6.933-2.7552-8.3773.4007-.4076.5277-.5347.914-.9158.1448-.143.5394-.175.7156-.0008.3411.3375.974 1.149 1.905 2.4477a3.3792 3.3792 0 0 1-.1817.2047c-.0537.0566-.0986.102-.1965.2002l-.612.6132c-1.041 1.0424-.1544 2.8166 1.5304 4.5054 1.6836 1.6877 3.4559 2.5765 4.4966 1.5338ZM9.7654.0556c3.4537.4193 6.1923 3.1617 6.6109 6.6204l-1.5781.2633c-.3047-2.7859-2.5139-4.9982-5.2958-5.3033l.263-1.5804Zm-.5262 3.162c2.1102.189 3.7908 1.8721 3.9795 3.9854l-1.5831.2642c-.0672-1.4407-1.2216-2.5968-2.6603-2.6641l.2639-1.5854Z" fill="#293449"/></svg>